HIERARCHY
ROOT Hips
{
    OFFSET   0.000000   0.000000   0.000000
    CHANNELS 6 Xposition Yposition Zposition Zrotation Xrotation Yrotation
    JOINT Chest
    {
        OFFSET   0.000000   8.007230   0.000000
        CHANNELS 3 Zrotation Xrotation Yrotation
        JOINT Chest2
        {
            OFFSET   0.000000  22.077100   0.000000
            CHANNELS 3 Zrotation Xrotation Yrotation
            JOINT Neck
            {
                OFFSET   0.000000  23.254700   0.000000
                CHANNELS 3 Zrotation Xrotation Yrotation
                JOINT Head
                {
                    OFFSET   0.000010  14.370000   1.956610
                    CHANNELS 3 Zrotation Xrotation Yrotation
                    End Site
                    {
                        OFFSET   0.000000  19.566000   0.000000
                    }
                }
            }
            JOINT LeftCollar
            {
                OFFSET   3.911900  19.017000  -0.467063
                CHANNELS 3 Zrotation Xrotation Yrotation
                JOINT LeftShoulder
                {
                    OFFSET  10.383700   0.000000   0.000000
                    CHANNELS 3 Zrotation Xrotation Yrotation
                    JOINT LeftElbow
                    {
                        OFFSET  26.662100   0.001671   0.000522
                        CHANNELS 3 Zrotation Xrotation Yrotation
                        JOINT LeftWrist
                        {
                            OFFSET  28.869000   0.000037  -0.000114
                            CHANNELS 3 Zrotation Xrotation Yrotation
                            JOINT LeftFinger0
                            {
                                OFFSET   2.044650  -2.323450   3.252850
                                CHANNELS 3 Zrotation Xrotation Yrotation
                                JOINT LeftFinger01
                                {
                                    OFFSET   3.088140   0.000000   0.000000
                                    CHANNELS 3 Zrotation Xrotation Yrotation
                                    JOINT LeftFinger02
                                    {
                                        OFFSET   2.639460   0.000000   0.000000
                                        CHANNELS 3 Zrotation Xrotation Yrotation
                                        End Site
                                        {
                                            OFFSET   2.582190   0.000000   0.000000
                                        }
                                    }
                                }
                            }
                            JOINT LeftFinger1
                            {
                                OFFSET   8.364480   0.000000   3.252850
                                CHANNELS 3 Zrotation Xrotation Yrotation
                                JOINT LeftFinger11
                                {
                                    OFFSET   4.646930   0.000000   0.000000
                                    CHANNELS 3 Zrotation Xrotation Yrotation
                                    JOINT LeftFinger12
                                    {
                                        OFFSET   2.323470   0.000000   0.000000
                                        CHANNELS 3 Zrotation Xrotation Yrotation
                                        End Site
                                        {
                                            OFFSET   2.273050   0.000000   0.000000
                                        }
                                    }
                                }
                            }
                            JOINT LeftFinger2
                            {
                                OFFSET   8.364490   0.000016   1.078090
                                CHANNELS 3 Zrotation Xrotation Yrotation
                                JOINT LeftFinger21
                                {
                                    OFFSET   5.111620   0.000000   0.000000
                                    CHANNELS 3 Zrotation Xrotation Yrotation
                                    JOINT LeftFinger22
                                    {
                                        OFFSET   2.788150   0.000013   0.000000
                                        CHANNELS 3 Zrotation Xrotation Yrotation
                                        End Site
                                        {
                                            OFFSET   2.727660   0.000000   0.000000
                                        }
                                    }
                                }
                            }
                            JOINT LeftFinger3
                            {
                                OFFSET   7.899780   0.000016  -1.078090
                                CHANNELS 3 Zrotation Xrotation Yrotation
                                JOINT LeftFinger31
                                {
                                    OFFSET   4.646930   0.000000   0.000000
                                    CHANNELS 3 Zrotation Xrotation Yrotation
                                    JOINT LeftFinger32
                                    {
                                        OFFSET   2.323470   0.000000   0.000000
                                        CHANNELS 3 Zrotation Xrotation Yrotation
                                        End Site
                                        {
                                            OFFSET   2.273050   0.000000   0.000000
                                        }
                                    }
                                }
                            }
                            JOINT LeftFinger4
                            {
                                OFFSET   7.435080   0.000000  -3.252850
                                CHANNELS 3 Zrotation Xrotation Yrotation
                                JOINT LeftFinger41
                                {
                                    OFFSET   3.717550   0.000000   0.000000
                                    CHANNELS 3 Zrotation Xrotation Yrotation
                                    JOINT LeftFinger42
                                    {
                                        OFFSET   1.858760   0.000000   0.000000
                                        CHANNELS 3 Zrotation Xrotation Yrotation
                                        End Site
                                        {
                                            OFFSET   1.818440   0.000000   0.000000
                                        }
                                    }
                                }
                            }
                        }
                    }
                }
            }
            JOINT RightCollar
            {
                OFFSET  -3.911900  19.017000  -0.467064
                CHANNELS 3 Zrotation Xrotation Yrotation
                JOINT RightShoulder
                {
                    OFFSET -10.383700   0.000000   0.000000
                    CHANNELS 3 Zrotation Xrotation Yrotation
                    JOINT RightElbow
                    {
                        OFFSET -26.662100   0.001633   0.000260
                        CHANNELS 3 Zrotation Xrotation Yrotation
                        JOINT RightWrist
                        {
                            OFFSET -28.869000  -0.000045  -0.000080
                            CHANNELS 3 Zrotation Xrotation Yrotation
                            JOINT RightFinger0
                            {
                                OFFSET  -2.044660  -2.323490   3.252850
                                CHANNELS 3 Zrotation Xrotation Yrotation
                                JOINT RightFinger01
                                {
                                    OFFSET  -3.088140   0.000000   0.000000
                                    CHANNELS 3 Zrotation Xrotation Yrotation
                                    JOINT RightFinger02
                                    {
                                        OFFSET  -2.639450   0.000000   0.000000
                                        CHANNELS 3 Zrotation Xrotation Yrotation
                                        End Site
                                        {
                                            OFFSET  -2.582190   0.000000   0.000000
                                        }
                                    }
                                }
                            }
                            JOINT RightFinger1
                            {
                                OFFSET  -8.364480   0.000000   3.252850
                                CHANNELS 3 Zrotation Xrotation Yrotation
                                JOINT RightFinger11
                                {
                                    OFFSET  -4.646920   0.000000   0.000000
                                    CHANNELS 3 Zrotation Xrotation Yrotation
                                    JOINT RightFinger12
                                    {
                                        OFFSET  -2.323470   0.000000   0.000000
                                        CHANNELS 3 Zrotation Xrotation Yrotation
                                        End Site
                                        {
                                            OFFSET  -2.273050   0.000000   0.000000
                                        }
                                    }
                                }
                            }
                            JOINT RightFinger2
                            {
                                OFFSET  -8.364480   0.000000   1.078090
                                CHANNELS 3 Zrotation Xrotation Yrotation
                                JOINT RightFinger21
                                {
                                    OFFSET  -5.111610   0.000000   0.000000
                                    CHANNELS 3 Zrotation Xrotation Yrotation
                                    JOINT RightFinger22
                                    {
                                        OFFSET  -2.788160   0.000000   0.000000
                                        CHANNELS 3 Zrotation Xrotation Yrotation
                                        End Site
                                        {
                                            OFFSET  -2.727660   0.000000   0.000000
                                        }
                                    }
                                }
                            }
                            JOINT RightFinger3
                            {
                                OFFSET  -7.899780   0.000000  -1.078090
                                CHANNELS 3 Zrotation Xrotation Yrotation
                                JOINT RightFinger31
                                {
                                    OFFSET  -4.646930   0.000000   0.000000
                                    CHANNELS 3 Zrotation Xrotation Yrotation
                                    JOINT RightFinger32
                                    {
                                        OFFSET  -2.323470   0.000000   0.000000
                                        CHANNELS 3 Zrotation Xrotation Yrotation
                                        End Site
                                        {
                                            OFFSET  -2.273050   0.000000   0.000000
                                        }
                                    }
                                }
                            }
                            JOINT RightFinger4
                            {
                                OFFSET  -7.435090   0.000000  -3.252850
                                CHANNELS 3 Zrotation Xrotation Yrotation
                                JOINT RightFinger41
                                {
                                    OFFSET  -3.717550   0.000000   0.000000
                                    CHANNELS 3 Zrotation Xrotation Yrotation
                                    JOINT RightFinger42
                                    {
                                        OFFSET  -1.858760   0.000000   0.000000
                                        CHANNELS 3 Zrotation Xrotation Yrotation
                                        End Site
                                        {
                                            OFFSET  -1.818440   0.000000   0.000000
                                        }
                                    }
                                }
                            }
                        }
                    }
                }
            }
        }
    }
    JOINT LeftHip
    {
        OFFSET   9.782990   0.000000   0.000000
        CHANNELS 3 Zrotation Xrotation Yrotation
        JOINT LeftKnee
        {
            OFFSET  -0.000063 -41.789100   0.001657
            CHANNELS 3 Zrotation Xrotation Yrotation
            JOINT LeftAnkle
            {
                OFFSET   0.000078 -41.133200  -0.000113
                CHANNELS 3 Zrotation Xrotation Yrotation
                JOINT LeftToe
                {
                    OFFSET   0.000000  -6.358970  14.674500
                    CHANNELS 3 Zrotation Xrotation Yrotation
                    End Site
                    {
                        OFFSET   0.000000   0.000000   3.913200
                    }
                }
            }
        }
    }
    JOINT RightHip
    {
        OFFSET  -9.782990   0.000000   0.000000
        CHANNELS 3 Zrotation Xrotation Yrotation
        JOINT RightKnee
        {
            OFFSET   0.000053 -41.789200   0.000277
            CHANNELS 3 Zrotation Xrotation Yrotation
            JOINT RightAnkle
            {
                OFFSET   0.000030 -41.133200  -0.000150
                CHANNELS 3 Zrotation Xrotation Yrotation
                JOINT RightToe
                {
                    OFFSET   0.000000  -6.358960  14.674500
                    CHANNELS 3 Zrotation Xrotation Yrotation
                    End Site
                    {
                        OFFSET   0.000000   0.000000   3.913200
                    }
                }
            }
        }
    }
}
MOTION
Frames: 6
Frame Time:   0.016667
 -0.474055  89.511500  -2.086200  -2.679980  -8.851300  -2.515280   0.744050   3.766150   0.045569   1.489930   7.532570   0.042129   0.706573   0.604406  -0.012750   1.161240   1.225140   2.490910  -3.224370  -2.209300   0.341973 -76.955700  12.301700   3.022360  -1.273750  -5.526360 -13.367800  11.926900  -6.165780   0.119357  36.935600  24.398600 -55.476300 -29.154000   0.000000   0.002200  -9.576980   0.001126   0.002101 -28.547000   6.384100 -11.551700 -23.885500  -0.005760  -0.009322 -16.732700  -0.004081  -0.004132 -28.792200   0.096283  -0.175180 -42.381400  -0.005469  -0.009581 -28.226000   0.002450  -0.000594 -28.514600   0.095406  -0.175657 -36.265000  -0.006514  -0.010189 -24.146100   0.003245  -0.005564 -33.777600   0.111140  -0.166161 -50.666700  -0.003620  -0.012460 -33.744000   0.007865  -0.001514   8.151390  -0.356843   5.856260  72.070500   2.267370  -5.694170  -0.972679  -7.433460  10.164300 -12.900700  -4.554120   2.658810 -39.409100  32.657300  62.766800  31.047900   0.003320  -0.001853  10.524000  -0.001798   0.003217  32.570500   7.976820  12.256200  27.351000  -0.001767   0.007905  19.145700   0.003876   0.006012  29.997300   3.872820   6.672920  45.335900   0.001732  -0.003065  30.193700   0.011846  -0.000724  28.519100   3.698980   6.770330  39.938500   0.000206   0.000065  26.599000   0.000000  -0.010407  38.785600  -0.728544  -0.906394  58.187000   0.006350  -0.001102  38.752500   0.005010  -0.001114   2.254410  12.172000   3.827370   1.456020   0.152457   6.255570  -1.554650  -3.731230   4.863740   0.000000   0.000000   0.000000   2.919920  11.041300  -3.043740  -0.295516   1.373830  -6.140230  -1.204160  -4.124660  -1.323500  -0.000000   0.000000  -0.000000
 -0.488151  89.511400  -2.102110  -2.686660  -8.870130  -2.504920   0.734487   3.794380   0.060976   1.469780   7.589230   0.073316   0.740985   0.593569  -0.012750   1.217800   1.203170   2.434240  -3.243520  -2.240750   0.313250 -76.922600  12.363400   3.009980  -1.276370  -5.565340 -13.411000  11.927000  -6.172200   0.124326  36.927400  24.404700 -55.487500 -29.175000   0.000000   0.002189  -9.587490   0.001125   0.002100 -28.553300   6.381280 -11.543900 -23.890000  -0.005761  -0.009316 -16.732600  -0.004077  -0.004124 -28.792300   0.088879  -0.161708 -42.381400  -0.005459  -0.009579 -28.226000   0.002452  -0.000566 -28.514600   0.088068  -0.162148 -36.265000  -0.006504  -0.010185 -24.146200   0.003244  -0.005553 -33.777600   0.102590  -0.153379 -50.666700  -0.003627  -0.012459 -33.744000   0.007857  -0.001491   8.172400  -0.375359   5.870620  72.124000   2.408150  -5.630710  -0.967129  -7.373200  10.194500 -12.914000  -4.547080   2.645030 -39.479300  32.804300  62.987600  31.031300   0.003331  -0.001917  10.515700  -0.001811   0.003199  32.593500   8.015460  12.302400  27.376000  -0.001768   0.007881  19.163300   0.003873   0.005995  30.025400   3.901770   6.714290  45.389700   0.001712  -0.003069  30.229500   0.011826  -0.000750  28.518500   3.719390   6.807140  40.002000   0.000168   0.000103  26.641400   0.000000  -0.010379  38.827500  -0.740284  -0.919721  58.250200   0.006354  -0.001022  38.794600   0.005061  -0.001045   2.273180  12.173700   3.823190   1.456110   0.159131   6.255380  -1.563890  -3.726020   4.858670   0.000000   0.000000   0.000000   2.938090  11.050000  -3.043540  -0.295480   1.371850  -6.140230  -1.212950  -4.114730  -1.327730  -0.000000   0.000000   0.000000
 -0.512625  89.511200  -2.128470  -2.698550  -8.906720  -2.487920   0.718475   3.844740   0.084576   1.436120   7.690270   0.121109   0.796897   0.575923  -0.012747   1.309640   1.167290   2.341640  -3.276070  -2.292100   0.267474 -76.866800  12.467000   2.984480  -1.279110  -5.625210 -13.479500  11.927800  -6.178610   0.135760  36.917700  24.422400 -55.506500 -29.207800   0.000000   0.002170  -9.603900   0.001124   0.002090 -28.563700   6.372830 -11.524200 -23.896900  -0.005763  -0.009298 -16.732500  -0.004072  -0.004106 -28.792300   0.077351  -0.140735 -42.381400  -0.005434  -0.009572 -28.226000   0.002454  -0.000501 -28.514500   0.076645  -0.141119 -36.265000  -0.006475  -0.010171 -24.146300   0.003244  -0.005526 -33.777700   0.089277  -0.133484 -50.666700  -0.003643  -0.012454 -33.744000   0.007838  -0.001434   8.211890  -0.409120   5.904370  72.191400   2.717400  -5.519830  -0.956642  -7.207400  10.246100 -12.929600  -4.497470   2.625780 -39.586100  33.027400  63.356600  31.000700   0.003354  -0.001980  10.500400  -0.001833   0.003160  32.630000   8.087500  12.391400  27.417800  -0.001771   0.007828  19.192500   0.003867   0.005952  30.059300   3.959950   6.803830  45.444200   0.001663  -0.003077  30.265800   0.011780  -0.000811  28.514500   3.771850   6.902990  40.065600   0.000130   0.000180  26.683700   0.000000  -0.010317  38.869400  -0.752024  -0.933049  58.313400   0.006360  -0.000874  38.836700   0.005169  -0.000976   2.306420  12.185000   3.815770   1.456190   0.165804   6.255200  -1.579200  -3.710970   4.847730   0.000000   0.000000   0.000000   2.970330  11.067600  -3.043430  -0.295442   1.369880  -6.140270  -1.229540  -4.099150  -1.334610  -0.000000   0.000000   0.000000
 -0.534176  89.512000  -2.149060  -2.709400  -8.947100  -2.474330   0.705126   3.891950   0.099186   1.408380   7.784870   0.150754   0.839308   0.561238  -0.012742   1.379290   1.137100   2.272290  -3.302230  -2.329960   0.235852 -76.820300  12.546400   2.953460  -1.276530  -5.660530 -13.530400  11.931600  -6.172500   0.151859  36.920900  24.456600 -55.522600 -29.227500   0.000000   0.002153  -9.613740   0.001122   0.002054 -28.571600   6.357790 -11.494200 -23.900800  -0.005764  -0.009267 -16.732600  -0.004073  -0.004083 -28.792400   0.070904  -0.129019 -42.373900  -0.005394  -0.009558 -28.221000   0.002454  -0.000407 -28.514400   0.070261  -0.129371 -36.260200  -0.006425  -0.010150 -24.146200   0.003242  -0.005485 -33.772600   0.081829  -0.122380 -50.659100  -0.003666  -0.012442 -33.738900   0.007806  -0.001349   8.250380  -0.440116   5.949210  72.205200   3.122190  -5.415970  -0.943018  -6.931630  10.282400 -12.926500  -4.358910   2.617750 -39.667800  33.196900  63.701100  30.974400   0.003384  -0.001978  10.487200  -0.001849   0.003110  32.669400   8.165850  12.489000  27.459500  -0.001779   0.007755  19.221700   0.003857   0.005885  30.055300   4.036330   6.935100  45.444900   0.001587  -0.003084  30.266400   0.011715  -0.000900  28.497600   3.879540   7.102380  40.030200   0.000140   0.000280  26.660100   0.000000  -0.010230  38.765000  -0.722382  -0.899234  58.155500   0.006363  -0.000681  38.731600   0.005317  -0.000993   2.336490  12.217900   3.808750   1.456210   0.148828   6.256610  -1.591160  -3.685580   4.833160  -0.000000   0.000000   0.000000   3.000010  11.087300  -3.043910  -0.295195   1.375970  -6.144870  -1.247120  -4.089160  -1.341010  -0.000000   0.000000   0.000000
 -0.557082  89.513800  -2.169830  -2.721750  -8.993430  -2.462150   0.692566   3.943270   0.111110   1.382390   7.887620   0.174930   0.878583   0.549930  -0.012735   1.443750   1.113890   2.203490  -3.331270  -2.368430   0.205548 -76.773800  12.637300   2.917310  -1.274280  -5.693600 -13.571000  11.940800  -6.166380   0.171079  36.923900  24.491700 -55.539400 -29.248500   0.000000   0.002136  -9.624250   0.001121   0.002001 -28.580300   6.339050 -11.457300 -23.904700  -0.005765  -0.009228 -16.732900  -0.004074  -0.004053 -28.792500   0.063291  -0.115178 -42.362700  -0.005345  -0.009540 -28.213600   0.002454  -0.000297 -28.514200   0.062722  -0.115492 -36.255400  -0.006362  -0.010123 -24.146100   0.003240  -0.005434 -33.765100   0.073035  -0.109262 -50.647800  -0.003695  -0.012426 -33.731400   0.007766  -0.001245   8.299310  -0.478795   6.011480  72.190500   3.615100  -5.315170  -0.933647  -6.589300  10.335700 -12.906900  -4.160160   2.614860 -39.691200  33.274600  63.940900  30.936300   0.003417  -0.001972  10.468200  -0.001871   0.003046  32.679400   8.244080  12.598900  27.484500  -0.001788   0.007668  19.239200   0.003845   0.005806  30.042900   4.106530   7.058270  45.445100   0.001493  -0.003091  30.266500   0.011637  -0.001002  28.490400   3.955130   7.242770  39.994800   0.000211   0.000370  26.636500   0.000000  -0.010138  38.660600  -0.692739  -0.865421  57.997700   0.006363  -0.000556  38.626400   0.005466  -0.001113   2.369030  12.266500   3.801700   1.456180   0.113113   6.259990  -1.603120  -3.652480   4.816770  -0.000000   0.000000  -0.000000   3.032640  11.112700  -3.045540  -0.294759   1.382770  -6.154030  -1.266640  -4.079440  -1.344740  -0.000000   0.000000   0.000000
 -0.581124  89.516100  -2.191120  -2.736440  -9.043620  -2.453220   0.682213   3.997550   0.120862   1.360940   7.996270   0.194581   0.912254   0.545926  -0.012726   1.498940   1.105830   2.133580  -3.365570  -2.411790   0.174292 -76.729300  12.754700   2.882900  -1.276980  -5.728590 -13.592100  11.958100  -6.169500   0.191425  36.919100  24.515800 -55.556000 -29.279800   0.000000   0.002119  -9.639910   0.001119   0.001950 -28.591600   6.318440 -11.416000 -23.910300  -0.005766  -0.009184 -16.736300  -0.004074  -0.004013 -28.792500   0.049226  -0.089586 -42.357200  -0.005290  -0.009523 -28.209900   0.002451  -0.000182 -28.514200   0.048785  -0.089828 -36.259500  -0.006293  -0.010089 -24.148900   0.003240  -0.005375 -33.760900   0.056796  -0.084990 -50.641500  -0.003730  -0.012410 -33.727200   0.007719  -0.001133   8.363990  -0.532770   6.098090  72.144200   4.180280  -5.234850  -0.929529  -6.220660  10.424100 -12.875200  -3.921090   2.617670 -39.676100  33.237500  64.011800  30.875200   0.003450  -0.001963  10.437600  -0.001911   0.002963  32.620500   8.310010  12.720300  27.452800  -0.001796   0.007574  19.217000   0.003836   0.005728  30.037500   4.137040   7.111250  45.445200   0.001389  -0.003097  30.266600   0.011551  -0.001104  28.511900   3.945230   7.223450  39.997800   0.001604   0.000405  26.638500   0.000000  -0.010053  38.694500  -0.701745  -0.876069  58.048700   0.006280  -0.000573  38.660400   0.005574  -0.002796   2.404680  12.329400   3.794430   1.455920   0.055134   6.266420  -1.614620  -3.608900   4.801300   0.000000   0.000000   0.000000   3.068560  11.147300  -3.048500  -0.294115   1.383230  -6.166010  -1.287540  -4.068470  -1.344700   0.000000   0.000000   0.000000
